<mxfile host="app.diagrams.net" modified="2023-11-27T16:38:16.869Z" agent="Mozilla/5.0 (Windows NT 10.0; Win64; x64) AppleWebKit/537.36 (KHTML, like Gecko) Chrome/119.0.0.0 Safari/537.36 Edg/119.0.0.0" version="22.1.4" etag="ztI74XCbonKLCOeX28vX" type="github">
  <diagram name="PÃ¡gina-1" id="x6xFO9naUHEPIvJtYMeS">
    <mxGraphModel>
      <root>
        <mxCell id="0" />
        <mxCell id="1" parent="0" />
      </root>
    </mxGraphModel>
  </diagram>
</mxfile>
